<svg width="27" height="26" viewBox="0 0 27 26" fill="none" xmlns="http://www.w3.org/2000/svg">
<path d="M13.5 24.375C20.0239 24.375 25.3125 19.2822 25.3125 13C25.3125 6.71776 20.0239 1.625 13.5 1.625C6.97614 1.625 1.6875 6.71776 1.6875 13C1.6875 19.2822 6.97614 24.375 13.5 24.375Z" fill="url(#paint0_linear_64_94)"/>
<path d="M19.3949 8.29465C19.5001 7.6402 18.8539 7.12363 18.2496 7.37912L6.21406 12.4676C5.78072 12.6509 5.81242 13.283 6.26186 13.4208L8.74386 14.1819C9.21763 14.3272 9.73055 14.2521 10.1442 13.9769L15.7402 10.254C15.9089 10.1417 16.0928 10.3728 15.9486 10.5159L11.9206 14.515C11.5298 14.903 11.6074 15.5603 12.0774 15.8442L16.5873 18.5675C17.0931 18.8729 17.7438 18.5661 17.8384 17.9775L19.3949 8.29465Z" fill="white"/>
<defs>
<linearGradient id="paint0_linear_64_94" x1="13.5" y1="1.625" x2="13.5" y2="24.375" gradientUnits="userSpaceOnUse">
<stop stop-color="#37BBFE"/>
<stop offset="1" stop-color="#007DBB"/>
</linearGradient>
</defs>
</svg>
