<svg width="25" height="25" viewBox="0 0 25 25" fill="none" xmlns="http://www.w3.org/2000/svg">
<g clip-path="url(#clip0_64_97)">
<path fill-rule="evenodd" clip-rule="evenodd" d="M24.3678 16.1505V8.87874C24.3678 2.23674 22.7995 0.656486 16.1555 0.656486C-0.0919971 0.552236 0.548252 -0.108514 0.657252 16.1382C0.657252 22.7802 2.2255 24.3605 8.8695 24.3605H14.3843C21.4433 24.4822 24.5453 23.997 24.3678 16.1505ZM19.7988 17.5705H18.0698C17.4153 17.5705 17.2178 17.0395 16.0445 15.8667C15.0195 14.879 14.5873 14.7555 14.328 14.7555C13.9698 14.7555 13.871 14.8542 13.871 15.348V16.9035C13.871 17.3232 13.7353 17.5702 12.636 17.5702C10.8083 17.5702 8.7955 16.459 7.36275 14.4097C5.214 11.4097 4.6335 9.13799 4.6335 8.68124C4.6335 8.42199 4.73225 8.18724 5.22625 8.18724H6.95525C7.39975 8.18724 7.56025 8.38474 7.73325 8.84149C8.442 11.165 10.8698 15.0312 10.907 12.8045V10.2612C10.833 9.10074 10.2155 9.00199 10.2155 8.58224C10.2155 8.39699 10.3885 8.18724 10.66 8.18724H13.3768C13.7473 8.18724 13.8708 8.37249 13.8708 8.81674V12.249C13.9178 13.072 14.4298 12.7482 14.9453 12.212C16.1925 10.8292 17.0693 8.68099 17.0693 8.68099C17.1805 8.42174 17.378 8.18724 17.8225 8.18724H19.5515C20.0703 8.18724 20.1813 8.44649 20.0703 8.81699C19.8603 9.82924 17.7485 12.7922 17.7485 12.8047C17.5633 13.0887 17.4893 13.237 17.7485 13.5702C18.2463 14.1905 21.8733 17.466 19.7988 17.5705Z" fill="#345E90"/>
</g>
<defs>
<clipPath id="clip0_64_97">
<rect width="25" height="25" fill="white"/>
</clipPath>
</defs>
</svg>
